<svg 
 xmlns="http://www.w3.org/2000/svg"
 xmlns:xlink="http://www.w3.org/1999/xlink"
 width="503.5px" height="608.5px">
<path fill-rule="evenodd"  stroke="rgb(0, 0, 0)" stroke-width="1px" stroke-linecap="butt" stroke-linejoin="miter" fill="rgb(0, 0, 0)"
 d="M500.500,547.500 C499.486,604.560 443.500,606.500 443.500,606.500 C443.500,606.500 113.867,606.006 57.500,606.500 C1.133,601.216 1.500,541.500 1.500,541.500 L1.500,145.500 C8.719,92.051 55.500,91.500 55.500,91.500 C55.500,91.500 69.111,90.295 103.500,89.500 C101.795,48.980 137.500,45.500 137.500,45.500 L178.500,46.500 C178.500,46.500 196.883,0.731 253.500,1.500 C300.733,1.546 324.500,46.500 324.500,46.500 C324.500,46.500 327.542,46.957 364.500,45.500 C402.097,50.532 398.517,92.308 398.501,92.492 C398.563,92.408 400.402,91.724 443.500,91.500 C489.436,91.261 501.500,140.500 501.500,140.500 C501.500,140.500 501.514,490.440 500.500,547.500 ZM360.500,75.500 C349.920,75.849 301.500,75.500 301.500,75.500 C301.500,75.500 295.845,34.266 252.500,30.500 C206.989,31.067 200.500,75.500 200.500,75.500 L144.500,75.500 C144.500,75.500 135.666,74.666 133.500,85.500 L133.500,148.500 L368.500,148.500 L369.500,85.500 C369.500,85.500 371.080,78.040 360.500,75.500 ZM471.500,149.500 C469.639,124.920 443.500,120.500 443.500,120.500 L397.500,120.500 L397.500,179.500 L102.500,179.500 L103.500,121.500 C103.500,121.500 88.035,122.442 60.500,121.500 C37.296,118.391 28.500,149.500 28.500,149.500 C28.500,149.500 29.563,503.809 29.500,541.500 C29.437,579.191 62.500,578.500 62.500,578.500 C62.500,578.500 382.560,577.482 434.500,577.500 C482.109,579.685 470.500,534.500 470.500,534.500 C470.500,534.500 469.752,174.080 471.500,149.500 ZM117.500,282.500 L382.500,282.500 L382.500,311.500 L117.500,312.500 L117.500,282.500 ZM280.500,443.500 L117.500,443.500 L117.500,413.500 L279.500,414.500 L280.500,443.500 Z"/>
</svg>